<svg xmlns="http://www.w3.org/2000/svg" viewBox="0 0 1200 720" role="img" aria-labelledby="t d">
<title id="t">从抽象概念到直观理解</title><desc id="d">数学、物理与化学概念由抽象符号转换为清晰视觉模型</desc>
<defs>
 <linearGradient id="bg" x1="0" y1="0" x2="1" y2="1"><stop stop-color="#0b1730"/><stop offset="1" stop-color="#10253d"/></linearGradient>
 <linearGradient id="cyan" x1="0" y1="0" x2="1" y2="0"><stop stop-color="#22d3ee"/><stop offset="1" stop-color="#38bdf8"/></linearGradient>
 <filter id="glow"><feGaussianBlur stdDeviation="10" result="b"/><feMerge><feMergeNode in="b"/><feMergeNode in="SourceGraphic"/></feMerge></filter>
</defs>
<rect width="1200" height="720" rx="44" fill="url(#bg)"/>
<circle cx="165" cy="180" r="125" fill="#111b38"/><circle cx="245" cy="300" r="165" fill="#111b38"/><circle cx="125" cy="420" r="115" fill="#111b38"/>
<g fill="none" stroke="#b8c7e8" stroke-width="4" opacity=".9">
 <path d="M85 180h145M155 115v135"/><path d="M95 235c28-65 54-65 82 0s54 65 82 0"/>
 <circle cx="185" cy="360" r="38"/><ellipse cx="185" cy="360" rx="76" ry="24" transform="rotate(25 185 360)"/><ellipse cx="185" cy="360" rx="76" ry="24" transform="rotate(-25 185 360)"/>
 <path d="M70 500h170M90 550l50-70 55 70z"/>
</g>
<g fill="#e0f2fe" font-family="Arial,sans-serif" font-weight="700"><text x="78" y="88" font-size="34">F = ma</text><text x="260" y="170" font-size="34">∫</text><text x="274" y="235" font-size="30">?</text><text x="70" y="625" font-size="28">sin θ</text></g>
<path d="M360 360C470 290 505 292 590 340" fill="none" stroke="url(#cyan)" stroke-width="20" stroke-linecap="round" filter="url(#glow)"/>
<path d="M570 315l70 26-55 49z" fill="#22d3ee"/>
<g transform="translate(630 80)">
 <rect x="0" y="0" width="500" height="155" rx="26" fill="#f8fafc"/>
 <g stroke="#12345a" stroke-width="4" fill="none"><path d="M50 120h155M80 132V35"/><path d="M92 111l80-64"/><path d="M320 125c25-70 75-90 125-110"/></g>
 <text x="52" y="34" fill="#0f172a" font-size="20" font-family="Arial">gradient → slope</text>
 <circle cx="381" cy="74" r="9" fill="#f59e0b"/><path d="M300 130h155" stroke="#65a30d" stroke-width="10" stroke-linecap="round"/>
 <rect y="185" width="500" height="155" rx="26" fill="#f8fafc"/>
 <text x="34" y="224" fill="#0f172a" font-size="26" font-family="Arial" font-weight="700">F = ma</text>
 <rect x="250" y="250" width="110" height="62" rx="7" fill="#b7791f"/><path d="M150 285h70" stroke="#0284c7" stroke-width="12" stroke-linecap="round"/><path d="M205 262l40 23-40 23z" fill="#0284c7"/>
 <rect y="370" width="240" height="155" rx="26" fill="#f8fafc"/>
 <circle cx="95" cy="445" r="35" fill="#ef4444"/><circle cx="145" cy="430" r="24" fill="#3b82f6"/><circle cx="147" cy="478" r="20" fill="#f8fafc"/><path d="M118 444l18-10M118 454l18 18" stroke="#475569" stroke-width="9"/>
 <rect x="260" y="370" width="240" height="155" rx="26" fill="#f8fafc"/>
 <path d="M290 485h170M315 485v-95M315 450l70-55 60 65" fill="none" stroke="#0f4c81" stroke-width="5"/><path d="M385 395l60 65" stroke="#f59e0b" stroke-width="8"/>
</g>
<g transform="translate(365 500)">
 <rect width="230" height="120" rx="28" fill="#0f2139" stroke="#2dd4bf" stroke-opacity=".4"/>
 <circle cx="58" cy="60" r="24" fill="#22d3ee" opacity=".15" stroke="#22d3ee" stroke-width="3"/><path d="M58 44v32M42 60h32" stroke="#67e8f9" stroke-width="4"/>
 <text x="100" y="53" fill="#e2e8f0" font-size="18" font-family="Arial">visual model</text><text x="100" y="78" fill="#94a3b8" font-size="15" font-family="Arial">关系 → 图像 → 应用</text>
</g>
</svg>